<svg width="32" height="33" viewBox="0 0 32 33" fill="none" xmlns="http://www.w3.org/2000/svg">
<path opacity="0.1" fill-rule="evenodd" clip-rule="evenodd" d="M0 16.1422C0 7.3056 7.16344 0.142151 16 0.142151C24.8366 0.142151 32 7.3056 32 16.1422C32 24.9787 24.8366 32.1422 16 32.1422C7.16344 32.1422 0 24.9787 0 16.1422Z" fill="white"/>
<path fill-rule="evenodd" clip-rule="evenodd" d="M16.0008 7.60883C13.6833 7.60883 13.3924 7.61896 12.4822 7.66038C11.5737 7.70198 10.9536 7.84581 10.411 8.05683C9.8498 8.27479 9.3737 8.56635 8.89939 9.04084C8.42471 9.51516 8.13316 9.99125 7.91449 10.5523C7.70293 11.0951 7.55893 11.7154 7.51804 12.6235C7.47733 13.5337 7.46666 13.8247 7.46666 16.1422C7.46666 18.4598 7.47697 18.7497 7.51822 19.66C7.55999 20.5684 7.70382 21.1885 7.91466 21.7311C8.1328 22.2924 8.42436 22.7684 8.89885 23.2428C9.37299 23.7174 9.84908 24.0097 10.41 24.2277C10.9529 24.4387 11.5732 24.5825 12.4815 24.6241C13.3917 24.6655 13.6824 24.6757 15.9997 24.6757C18.3174 24.6757 18.6074 24.6655 19.5176 24.6241C20.4261 24.5825 21.0469 24.4387 21.5898 24.2277C22.1509 24.0097 22.6263 23.7174 23.1004 23.2428C23.5751 22.7684 23.8667 22.2924 24.0853 21.7313C24.2951 21.1885 24.4391 20.5682 24.4818 19.6602C24.5227 18.7499 24.5333 18.4598 24.5333 16.1422C24.5333 13.8247 24.5227 13.5339 24.4818 12.6236C24.4391 11.7152 24.2951 11.0951 24.0853 10.5525C23.8667 9.99125 23.5751 9.51516 23.1004 9.04084C22.6258 8.56617 22.1511 8.27461 21.5893 8.05683C21.0453 7.84581 20.4248 7.70198 19.5164 7.66038C18.6062 7.61896 18.3164 7.60883 15.9981 7.60883H16.0008ZM15.2352 9.1466C15.4624 9.14624 15.716 9.1466 16.0008 9.1466C18.2792 9.1466 18.5492 9.15477 19.449 9.19566C20.281 9.23371 20.7325 9.37273 21.0333 9.48953C21.4316 9.6442 21.7155 9.82909 22.014 10.1278C22.3126 10.4264 22.4975 10.7109 22.6526 11.1091C22.7694 11.4096 22.9086 11.8611 22.9464 12.6931C22.9873 13.5927 22.9962 13.8629 22.9962 16.1403C22.9962 18.4176 22.9873 18.6879 22.9464 19.5874C22.9084 20.4194 22.7694 20.871 22.6526 21.1714C22.4979 21.5697 22.3126 21.8532 22.014 22.1517C21.7153 22.4504 21.4317 22.6353 21.0333 22.7899C20.7329 22.9073 20.281 23.0459 19.449 23.084C18.5494 23.1249 18.2792 23.1338 16.0008 23.1338C13.7222 23.1338 13.4521 23.1249 12.5525 23.084C11.7205 23.0456 11.269 22.9066 10.968 22.7898C10.5698 22.6351 10.2853 22.4502 9.98665 22.1515C9.68798 21.8529 9.50309 21.5691 9.34806 21.1707C9.23126 20.8703 9.09206 20.4187 9.0542 19.5867C9.01331 18.6871 9.00513 18.4169 9.00513 16.1381C9.00513 13.8594 9.01331 13.5906 9.0542 12.691C9.09224 11.859 9.23126 11.4074 9.34806 11.1066C9.50273 10.7084 9.68798 10.4239 9.98665 10.1253C10.2853 9.8266 10.5698 9.64171 10.968 9.48669C11.2688 9.36935 11.7205 9.23069 12.5525 9.19246C13.3398 9.15691 13.6448 9.14624 15.2352 9.14446V9.1466ZM20.5558 10.5635C19.9905 10.5635 19.5318 11.0216 19.5318 11.5872C19.5318 12.1525 19.9905 12.6112 20.5558 12.6112C21.1212 12.6112 21.5798 12.1525 21.5798 11.5872C21.5798 11.0218 21.1212 10.5635 20.5558 10.5635ZM16.0008 11.76C13.5807 11.76 11.6185 13.7221 11.6185 16.1422C11.6185 18.5623 13.5807 20.5236 16.0008 20.5236C18.4209 20.5236 20.3824 18.5623 20.3824 16.1422C20.3824 13.7221 18.4209 11.76 16.0008 11.76ZM16.0008 13.2977C17.5716 13.2977 18.8452 14.5712 18.8452 16.1422C18.8452 17.7131 17.5716 18.9867 16.0008 18.9867C14.4297 18.9867 13.1563 17.7131 13.1563 16.1422C13.1563 14.5712 14.4297 13.2977 16.0008 13.2977Z" fill="white"/>
</svg>
