<svg width="32" height="33" viewBox="0 0 32 33" fill="none" xmlns="http://www.w3.org/2000/svg">
<path opacity="0.1" fill-rule="evenodd" clip-rule="evenodd" d="M0 16.1422C0 7.3056 7.16344 0.142151 16 0.142151C24.8366 0.142151 32 7.3056 32 16.1422C32 24.9787 24.8366 32.1422 16 32.1422C7.16344 32.1422 0 24.9787 0 16.1422Z" fill="white"/>
<path fill-rule="evenodd" clip-rule="evenodd" d="M15.5208 13.1471L15.5544 13.7008L14.9948 13.633C12.9579 13.3731 11.1784 12.4918 9.66756 11.0117L8.92891 10.2773L8.73865 10.8196C8.33575 12.0286 8.59316 13.3053 9.43253 14.164C9.8802 14.6386 9.77948 14.7063 9.00725 14.4239C8.73865 14.3335 8.50363 14.2657 8.48124 14.2996C8.4029 14.3787 8.6715 15.4069 8.88414 15.8136C9.17513 16.3786 9.76828 16.9322 10.4174 17.2599L10.9658 17.5197L10.3167 17.531C9.68994 17.531 9.66756 17.5423 9.73471 17.7796C9.95854 18.514 10.8427 19.2936 11.8276 19.6326L12.5214 19.8699L11.9171 20.2314C11.0218 20.7511 9.96973 21.0449 8.91772 21.0675C8.41409 21.0788 8 21.124 8 21.1579C8 21.2709 9.36538 21.9036 10.16 22.1522C12.5438 22.8866 15.3753 22.5702 17.5017 21.3161C19.0126 20.4235 20.5235 18.6496 21.2286 16.9322C21.6091 16.017 21.9896 14.3448 21.9896 13.5426C21.9896 13.0228 22.0232 12.955 22.6499 12.3336C23.0192 11.9721 23.3662 11.5766 23.4333 11.4636C23.5452 11.2489 23.534 11.2489 22.9633 11.441C22.012 11.78 21.8777 11.7348 22.3477 11.2263C22.6947 10.8648 23.1088 10.2095 23.1088 10.0174C23.1088 9.98349 22.9409 10.04 22.7506 10.1417C22.5492 10.2547 22.1015 10.4241 21.7658 10.5258L21.1614 10.7179L20.613 10.3451C20.3108 10.1417 19.8856 9.9157 19.6617 9.84791C19.0909 9.68973 18.218 9.71232 17.7032 9.8931C16.3042 10.4015 15.4201 11.7122 15.5208 13.1471Z" fill="white"/>
</svg>
