<svg width="32" height="33" viewBox="0 0 32 33" fill="none" xmlns="http://www.w3.org/2000/svg">
<path opacity="0.1" fill-rule="evenodd" clip-rule="evenodd" d="M0 16.1422C0 7.3056 7.16344 0.142151 16 0.142151C24.8366 0.142151 32 7.3056 32 16.1422C32 24.9787 24.8366 32.1422 16 32.1422C7.16344 32.1422 0 24.9787 0 16.1422Z" fill="white"/>
<path fill-rule="evenodd" clip-rule="evenodd" d="M22.6677 10.6417C23.4021 10.8432 23.9804 11.437 24.1767 12.191C24.5333 13.5575 24.5333 16.4088 24.5333 16.4088C24.5333 16.4088 24.5333 19.2601 24.1767 20.6267C23.9804 21.3807 23.4021 21.9745 22.6677 22.1761C21.3369 22.5422 16 22.5422 16 22.5422C16 22.5422 10.6631 22.5422 9.33218 22.1761C8.59783 21.9745 8.0195 21.3807 7.82323 20.6267C7.46667 19.2601 7.46667 16.4088 7.46667 16.4088C7.46667 16.4088 7.46667 13.5575 7.82323 12.191C8.0195 11.437 8.59783 10.8432 9.33218 10.6417C10.6631 10.2755 16 10.2755 16 10.2755C16 10.2755 21.3369 10.2755 22.6677 10.6417ZM14.4 14.0088V19.3421L18.6667 16.6756L14.4 14.0088Z" fill="white"/>
</svg>
